<?xml version="1.0" encoding="UTF-8" standalone="no"?>
<svg xmlns:ffdec="https://www.free-decompiler.com/flash" xmlns:xlink="http://www.w3.org/1999/xlink" ffdec:objectType="frame" height="24.45px" width="80.0px" xmlns="http://www.w3.org/2000/svg">
  <g transform="matrix(1.0, 0.0, 0.0, 1.0, 39.95, 12.25)">
    <use ffdec:characterId="63" height="20.0" transform="matrix(1.0, 0.0, 0.0, 1.0, 0.0, 0.0)" width="14.9" xlink:href="#shape0"/>
  </g>
  <defs>
    <g id="shape0">
      <path d="M4.15 -4.7 L4.15 -3.7 2.6 -4.5 1.95 -3.65 1.55 -3.0 -0.4 -4.55 -2.65 -2.65 -3.0 -4.9 -5.7 -4.6 -4.2 -5.65 Q-2.5 -6.65 -0.6 -6.2 L0.2 -6.75 -1.5 -9.55 Q-1.1 -9.75 -0.65 -10.0 L1.6 -6.55 5.95 -4.9 4.15 -4.7" fill="url(#gradient0)" fill-rule="evenodd" stroke="none"/>
      <path d="M-3.0 -4.9 L-2.65 -2.65 -0.4 -4.55 1.55 -3.0 1.95 -3.65 Q3.65 -2.55 3.35 1.15 L4.3 2.3 Q2.3 2.85 2.1 3.9 1.9 4.9 3.35 5.4 L2.45 9.2 Q1.05 10.25 -0.05 9.9 -1.75 9.3 -3.95 6.6 -6.2 3.9 -7.1 1.0 -8.05 -1.9 -5.6 -3.7 -4.5 -4.5 -3.0 -4.9 M-6.7 -0.8 L-5.9 -1.65 -5.9 -2.7 -6.7 -1.7 -6.7 -0.8 M-2.65 1.1 L-4.55 -0.1 -5.25 0.4 -4.9 2.35 -5.9 2.35 -5.3 3.1 -3.15 4.3 -3.2 5.1 -2.35 4.8 -2.2 2.85 -2.85 3.7 -3.35 3.65 -3.95 2.6 -3.9 1.4 -2.65 1.1 M-1.4 7.15 L-1.4 7.7 -0.95 8.1 -0.7 7.65 -1.4 7.15 M-6.25 0.55 L-6.25 1.6 -5.25 2.2 -5.2 1.45 -6.25 0.55 M-2.25 6.1 L-2.85 5.6 -2.9 6.45 -2.3 6.85 -2.25 6.1 M-0.15 6.1 L-0.7 5.65 -0.75 6.4 Q-0.5 6.6 -0.2 6.75 L-0.15 6.1 M-2.1 3.8 L-2.15 4.4 -1.7 4.95 -1.2 4.95 -1.15 4.25 -2.1 3.8 M-4.3 4.85 L-3.7 5.3 -3.6 4.4 Q-4.05 4.15 -4.55 3.85 L-4.3 4.85 M-2.8 2.35 L-3.7 1.7 -3.75 2.3 -3.3 3.1 -2.85 3.15 -2.8 2.35" fill="url(#gradient1)" fill-rule="evenodd" stroke="none"/>
      <path d="M6.6 -0.25 L6.25 0.4 5.85 -0.2 6.3 -1.2 6.6 -0.25 M5.4 2.55 L4.95 2.5 5.0 1.9 5.45 1.35 5.7 2.05 5.4 2.55 M6.4 3.25 L5.7 3.8 5.7 3.2 6.1 2.65 6.4 3.25 M4.65 0.7 L4.25 1.45 3.7 0.95 4.15 -0.4 4.65 0.7 M5.0 4.6 L4.25 5.3 4.25 4.8 4.8 3.95 5.0 4.6 M2.75 3.85 L3.65 3.1 3.6 3.85 3.05 4.5 2.75 3.85 M-6.7 -0.8 L-6.7 -1.7 -5.9 -2.7 -5.9 -1.65 -6.7 -0.8 M-2.8 2.35 L-2.85 3.15 -3.3 3.1 -3.75 2.3 -3.7 1.7 -2.8 2.35 M-4.3 4.85 L-4.55 3.85 Q-4.05 4.15 -3.6 4.4 L-3.7 5.3 -4.3 4.85 M-2.1 3.8 L-1.15 4.25 -1.2 4.95 -1.7 4.95 -2.15 4.4 -2.1 3.8 M-0.15 6.1 L-0.2 6.75 Q-0.5 6.6 -0.75 6.4 L-0.7 5.65 -0.15 6.1 M-2.25 6.1 L-2.3 6.85 -2.9 6.45 -2.85 5.6 -2.25 6.1 M-6.25 0.55 L-5.2 1.45 -5.25 2.2 -6.25 1.6 -6.25 0.55 M-1.4 7.15 L-0.7 7.65 -0.95 8.1 -1.4 7.7 -1.4 7.15" fill="#ffff99" fill-rule="evenodd" stroke="none"/>
      <path d="M1.95 -3.65 L2.6 -4.5 4.15 -3.7 4.15 -4.7 Q6.25 -4.05 6.95 -2.75 8.05 -0.7 7.2 2.05 6.3 4.8 4.0 7.65 L2.45 9.2 3.35 5.4 Q1.9 4.9 2.1 3.9 2.3 2.85 4.3 2.3 L3.35 1.15 Q3.65 -2.55 1.95 -3.65 M6.4 3.25 L6.1 2.65 5.7 3.2 5.7 3.8 6.4 3.25 M5.4 2.55 L5.7 2.05 5.45 1.35 5.0 1.9 4.95 2.5 5.4 2.55 M6.6 -0.25 L6.3 -1.2 5.85 -0.2 6.25 0.4 6.6 -0.25 M4.65 0.7 L4.15 -0.4 3.7 0.95 4.25 1.45 4.65 0.7 M5.0 4.6 L4.8 3.95 4.25 4.8 4.25 5.3 5.0 4.6 M2.75 3.85 L3.05 4.5 3.6 3.85 3.65 3.1 2.75 3.85" fill="#990000" fill-rule="evenodd" stroke="none"/>
      <path d="M-2.65 1.1 L-3.9 1.4 -3.95 2.6 -3.35 3.65 -2.85 3.7 -2.2 2.85 -2.35 4.8 -3.2 5.1 -3.15 4.3 -5.3 3.1 -5.9 2.35 -4.9 2.35 -5.25 0.4 -4.55 -0.1 -2.65 1.1" fill="#ffffff" fill-rule="evenodd" stroke="none"/>
    </g>
    <linearGradient gradientTransform="matrix(0.0071, 0.0, 0.0, 0.0045, 0.1, -6.35)" gradientUnits="userSpaceOnUse" id="gradient0" spreadMethod="pad" x1="-819.2" x2="819.2">
      <stop offset="0.0" stop-color="#ffffff"/>
      <stop offset="0.4823529411764706" stop-color="#00ff00"/>
      <stop offset="0.807843137254902" stop-color="#009900"/>
    </linearGradient>
    <radialGradient cx="0" cy="0" gradientTransform="matrix(0.0106, 0.0, 0.0, 0.0139, -4.55, -0.1)" gradientUnits="userSpaceOnUse" id="gradient1" r="819.2" spreadMethod="pad">
      <stop offset="0.0" stop-color="#ffffff"/>
      <stop offset="0.3333333333333333" stop-color="#ff0000"/>
      <stop offset="0.5803921568627451" stop-color="#ff0000"/>
      <stop offset="0.8431372549019608" stop-color="#cc0000"/>
      <stop offset="1.0" stop-color="#990000"/>
    </radialGradient>
  </defs>
</svg>
