<?xml version="1.0" encoding="UTF-8" standalone="no"?>
<svg xmlns:ffdec="https://www.free-decompiler.com/flash" xmlns:xlink="http://www.w3.org/1999/xlink" ffdec:objectType="frame" height="9.0px" width="15.0px" xmlns="http://www.w3.org/2000/svg">
  <g transform="matrix(1.0, 0.0, 0.0, 1.0, 7.5, 4.25)">
    <use ffdec:characterId="15" height="18.0" transform="matrix(0.1667, 0.0, 0.0, 0.1667, -2.5, -2.75)" width="18.0" xlink:href="#shape0"/>
    <use ffdec:characterId="15" height="18.0" transform="matrix(0.1667, 0.0, 0.0, 0.1667, 2.5, -2.75)" width="18.0" xlink:href="#shape0"/>
    <use ffdec:characterId="17" height="3.0" transform="matrix(1.0, 0.0, 0.0, 1.0, 0.0, 0.0)" width="15.0" xlink:href="#shape1"/>
  </g>
  <defs>
    <g id="shape0">
      <path d="M6.35 -6.35 Q9.0 -3.7 9.0 0.0 9.0 3.7 6.35 6.35 3.7 9.0 0.0 9.0 -3.7 9.0 -6.35 6.35 -9.0 3.7 -9.0 0.0 -9.0 -3.7 -6.35 -6.35 -3.7 -9.0 0.0 -9.0 3.7 -9.0 6.35 -6.35" fill="#ffffff" fill-rule="evenodd" stroke="none"/>
    </g>
    <g id="shape1">
      <path d="M7.0 4.25 L4.7 2.25 2.35 4.25 0.0 2.25 -2.3 4.25 -4.65 2.25 -7.0 4.25" fill="none" stroke="#ffffff" stroke-linecap="round" stroke-linejoin="round" stroke-width="1.0"/>
    </g>
  </defs>
</svg>
